<svg width="86" height="86" viewBox="0 0 86 86" fill="none" xmlns="http://www.w3.org/2000/svg">
<path d="M30.667 8.66667V16H40.0003H49.3337V8.66667V1.33333H40.0003H30.667V8.66667ZM46.667 8.66667V13.3333H40.0003H33.3337V8.66667V4H40.0003H46.667V8.66667Z" fill="#548135"/>
<path d="M19.0667 11.3333C19.6 12.3999 19.2 13.5999 18.4 14.1333C17.4667 14.7999 18 15.4666 19.8667 16.2666C21.6 16.7999 23.4667 17.0666 24.1334 16.5333C26.1334 15.3333 25.4667 11.0666 23.2 10.1333C19.7334 8.79993 18.4 9.19993 19.0667 11.3333Z" fill="#548135"/>
<path d="M53.334 11.7333C53.334 12.8 59.0673 16 60.6673 16C62.6673 16 60.8007 13.4667 58.0007 12.2667C53.8673 10.4 53.334 10.2667 53.334 11.7333Z" fill="#548135"/>
<path d="M11.1999 20.6667C8.26661 25.2 9.46661 26.1333 13.1999 22.1333C15.0666 20.1333 15.5999 18.6667 14.7999 18.1333C14.1333 17.6 12.3999 18.8 11.1999 20.6667Z" fill="#548135"/>
<path d="M64 18.7999C64 21.3333 68.9333 26.1333 70.2667 24.7999C70.8 24.3999 69.6 22.2666 67.6 20.2666C64.9333 17.7333 64 17.3333 64 18.7999Z" fill="#548135"/>
<path d="M34.8007 24.9334C34.134 26.2667 32.0007 27.3334 30.2673 27.3334C25.4673 27.6 22.6673 30.4 22.6673 34.8C22.6673 37.2 21.734 39.0667 20.0007 40C18.4007 40.8 17.334 42.8 17.334 44.6667C17.334 46.5334 18.4007 48.5334 20.0007 49.3334C21.734 50.2667 22.6673 52.1334 22.6673 54.5334C22.6673 58.9334 25.4673 61.7334 30.2673 62C32.134 62 34.4007 63.0667 35.334 64.4C37.6007 67.4667 41.6007 67.2 44.4007 63.8667C46.134 62 47.734 61.3334 49.8673 61.8667C53.8673 62.8 57.8673 58.6667 56.6673 54.8C56.134 52.9334 56.6673 51.3334 58.534 49.7334C61.8673 46.9334 62.134 42 59.2007 40.2667C58.0007 39.6 56.934 37.2 56.8007 35.0667C56.534 30 53.734 26.4 50.6673 27.3334C47.6007 28.2667 44.0007 26.8 44.0007 24.5334C44.0007 21.7334 36.4007 22.1334 34.8007 24.9334ZM42.4007 27.4667C43.0673 28.6667 45.334 29.7334 47.6007 29.8667C52.8007 30.4 54.6673 31.6 53.734 34.1334C53.334 35.3334 54.2673 37.8667 55.8673 40C59.2007 44.6667 59.334 45.2 56.534 47.3334C55.334 48.1334 54.2673 50.9334 54.0007 53.3334C53.734 57.4667 53.2007 58 48.534 59.0667C45.734 59.6 42.934 60.9334 42.2673 62C40.934 64.5334 38.6673 64.5334 36.8007 61.8667C35.8673 60.6667 33.2007 59.3334 30.6673 58.8C26.8007 58 26.0007 57.2 25.2007 53.3334C24.6673 50.8 23.334 48.1334 22.134 47.2C19.334 45.2 19.4673 44.5334 22.6673 41.3334C24.134 39.8667 25.334 36.9334 25.334 34.8C25.334 31.3334 25.8673 30.9334 30.6673 30.1334C33.734 29.7334 36.4007 28.4 36.8007 27.3334C37.8673 24.6667 40.934 24.8 42.4007 27.4667Z" fill="#548135"/>
<path d="M35.067 34.6665C30.1336 36.6665 27.867 43.8665 30.1336 49.9998C31.467 53.1998 38.1336 56.1332 42.0003 55.1998C46.267 54.1332 50.667 48.6665 50.667 44.3998C50.667 40.5332 43.867 33.3332 40.4003 33.4665C39.067 33.4665 36.667 33.9998 35.067 34.6665ZM45.467 38.7998C49.067 42.3998 48.267 47.5998 43.867 51.0665C40.667 53.3332 39.867 53.4665 36.5336 51.8665C31.2003 49.3332 30.267 41.3332 34.9336 38.1332C38.9336 35.1998 42.1336 35.4665 45.467 38.7998Z" fill="#548135"/>
<path d="M5.46693 30.4C3.7336 33.7333 3.60026 36 5.20026 36C6.5336 36 8.5336 29.3333 7.46693 28.4C7.20026 28 6.26693 28.9333 5.46693 30.4Z" fill="#548135"/>
<path d="M70.667 28.5332C70.667 28.9332 71.2003 30.6665 72.0003 32.5332C73.867 37.4665 76.267 36.9332 74.5337 31.9998C73.7337 29.7332 72.5337 27.9998 71.867 27.9998C71.2003 27.9998 70.667 28.2665 70.667 28.5332Z" fill="#548135"/>
<path d="M2.66699 44.8C2.66699 47.6 3.20033 49.2 4.00033 48.6667C5.73366 47.6 5.73366 40 4.00033 40C3.33366 40 2.66699 42.1333 2.66699 44.8Z" fill="#548135"/>
<path d="M72.9333 42.6667C70.8 44.8 70.8 45.0667 73.0667 47.0667C75.4667 49.2 75.7333 49.2 77.7333 46.9333C79.8667 44.5333 79.8667 44.2667 77.7333 42.4C75.6 40.5333 75.0667 40.5333 72.9333 42.6667Z" fill="#548135"/>
<path d="M66.4007 58.9333C63.7341 63.4666 61.7341 67.7333 62.1341 68.2666C63.0674 69.7333 82.6674 69.6 82.6674 68.1333C82.6674 66.1333 73.3341 50.6666 72.2674 50.6666C71.7341 50.6666 69.0674 54.4 66.4007 58.9333ZM78.2674 66.1333C77.8674 66.5333 74.8007 66.6666 71.4674 66.4L65.3341 66L68.8007 60.2666L72.2674 54.4L75.6007 60C77.4674 63.0666 78.6674 65.8666 78.2674 66.1333Z" fill="#548135"/>
<path d="M4 54.1332C4 55.5999 4.93333 57.9999 6.13333 59.4666C8.13333 61.8666 8.13333 61.8666 7.33333 57.9999C6.26667 53.0666 4 50.3999 4 54.1332Z" fill="#548135"/>
<path d="M10.6669 65.3333C6.93355 69.0666 7.06688 76.5333 10.9335 79.1999C17.7335 83.9999 25.7335 79.9999 25.7335 71.7333C25.7335 63.8666 16.1335 59.8666 10.6669 65.3333ZM22.1335 68.6666C24.1335 71.7333 24.1335 72.2666 22.1335 75.3333C18.2669 81.1999 10.6669 79.0666 10.6669 71.9999C10.6669 64.9333 18.2669 62.7999 22.1335 68.6666Z" fill="#548135"/>
<path d="M55.3341 75.0667C53.8674 76.2667 53.4674 77.2001 54.2674 77.7334C55.0674 78.2667 57.2007 77.4667 58.8007 76.0001C61.2007 74.1334 61.4674 73.4667 59.8674 73.3334C58.8007 73.3334 56.8007 74.1334 55.3341 75.0667Z" fill="#548135"/>
<path d="M29.467 77.7333C28.4004 79.1999 28.667 80.1333 30.667 81.9999C32.1337 83.3333 33.3337 83.7333 33.3337 82.9333C33.3337 81.9999 34.267 81.3333 35.3337 81.3333C36.4004 81.3333 37.3337 80.6666 37.3337 79.9999C37.3337 79.1999 36.667 78.6666 35.867 78.6666C35.2004 78.6666 34.9337 77.9999 35.3337 77.3333C36.5337 75.3333 31.2004 75.7333 29.467 77.7333Z" fill="#548135"/>
<path d="M46.0003 78.3999C44.5337 78.6666 42.8003 79.4666 42.1337 80.1333C40.4003 81.7333 46.667 81.7333 49.2003 80.1333C51.467 78.6666 49.467 77.5999 46.0003 78.3999Z" fill="#548135"/>
</svg>
