<svg width="86" height="86" viewBox="0 0 86 86" fill="none" xmlns="http://www.w3.org/2000/svg">
<path d="M12.1337 13.4667C9.73366 14.2667 7.46699 15.8667 7.06699 17.3334C6.66699 18.6667 5.06699 20.0001 3.46699 20.2667C0.666992 20.6667 0.666992 21.0667 0.666992 46.6667V72.6667H42.667H84.667V46.6667C84.667 21.0667 84.667 20.6667 81.867 20.2667C80.267 20.0001 78.667 18.6667 78.267 17.3334C76.667 11.2001 57.6003 11.0667 47.2003 17.2001C42.9337 19.7334 42.9337 19.7334 36.5337 16.5334C28.9337 12.9334 18.5337 11.6001 12.1337 13.4667ZM35.7337 19.8667L41.3337 22.6667V44.6667C41.3337 59.2001 40.8003 66.6667 40.0003 66.6667C39.2003 66.6667 36.667 65.6001 34.267 64.4001C31.467 62.9334 26.667 62.1334 20.4003 62.1334L10.667 62.0001V39.7334C10.667 23.3334 11.067 17.3334 12.4003 16.8001C15.867 15.2001 30.267 17.0667 35.7337 19.8667ZM72.5337 16.8001C74.4003 17.4667 74.667 20.8001 74.667 39.8667V62.0001L64.9337 62.1334C58.667 62.1334 53.867 62.9334 51.067 64.4001C48.667 65.6001 46.1337 66.6667 45.3337 66.6667C44.5337 66.6667 44.0003 59.2001 44.0003 44.6667V22.8001L48.267 20.5334C56.267 16.4001 67.2003 14.6667 72.5337 16.8001ZM6.66699 45.3334V66.6667L16.4003 65.8667C23.6003 65.2001 27.2003 65.6001 30.667 67.0667C35.2003 69.0667 34.9337 69.0667 19.7337 69.2001L4.00033 69.3334V46.6667C4.00033 32.4001 4.53366 24.0001 5.33366 24.0001C6.13366 24.0001 6.66699 32.0001 6.66699 45.3334ZM81.3337 46.6667V69.3334L65.7337 69.2001C50.4003 69.0667 50.1337 69.0667 54.667 67.0667C58.1337 65.6001 61.7337 65.2001 69.067 65.8667L78.667 66.6667V45.3334C78.667 32.0001 79.2003 24.0001 80.0003 24.0001C80.8003 24.0001 81.3337 32.4001 81.3337 46.6667Z" fill="#548135"/>
</svg>
