<svg width="86" height="86" viewBox="0 0 86 86" fill="none" xmlns="http://www.w3.org/2000/svg">
<path d="M34.7997 9.06675C29.733 11.7334 25.333 18.8001 25.333 24.0001C25.333 32.0001 34.2663 40.6667 42.6663 40.6667C51.0663 40.6667 59.9997 32.0001 59.9997 24.0001C59.9997 15.7334 50.933 6.66675 42.6663 6.66675C40.7997 6.66675 37.1997 7.73341 34.7997 9.06675ZM52.133 14.5334C60.6663 23.2001 54.7997 37.3334 42.6663 37.3334C38.2663 37.3334 36.2663 36.5334 33.1997 33.4667C24.6663 24.8001 30.533 10.6667 42.6663 10.6667C47.0663 10.6667 49.0663 11.4667 52.133 14.5334Z" fill="#548135"/>
<path d="M28.9332 46.1334C19.9999 48.9334 11.5999 57.4667 8.53325 67.0667C4.66658 79.3334 2.93325 78.6667 42.6666 78.6667C82.3999 78.6667 80.6666 79.3334 76.7999 67.0667C70.9332 48.6667 50.2666 39.6 28.9332 46.1334ZM57.0666 50.1334C63.5999 52.8 69.0666 58.1334 72.1332 64.6667C77.0666 75.2 78.6666 74.6667 42.6666 74.6667C7.06658 74.6667 8.79991 75.2 12.7999 65.6C15.4666 59.0667 20.7999 53.6 27.3332 50.5334C34.1332 47.3334 49.9999 47.2 57.0666 50.1334Z" fill="#548135"/>
</svg>
