<svg width="86" height="86" viewBox="0 0 86 86" fill="none" xmlns="http://www.w3.org/2000/svg">
<g clip-path="url(#clip0_41_199)">
<path d="M11.0663 11.6001C6.53293 12.5334 1.5996 19.3334 0.666268 26.0001C0.132935 29.2001 -0.133732 39.0667 0.132935 47.8667C0.932935 74.1334 2.3996 75.0667 46.2663 74.4001C75.4663 74.0001 75.8663 74.0001 79.1996 70.8001C83.9996 66.2667 85.3329 60.4001 85.3329 42.6667C85.3329 24.9334 83.9996 19.0667 79.1996 14.5334C75.8663 11.3334 75.5996 11.3334 44.9329 11.2001C27.8663 11.0667 12.6663 11.2001 11.0663 11.6001ZM76.1329 18.5334C79.1996 21.0667 79.3329 21.6001 79.3329 42.6667C79.3329 71.7334 82.3996 69.6001 41.8663 69.0667C14.1329 68.6667 10.5329 68.4001 8.3996 66.2667C6.26627 64.1334 5.9996 61.2001 5.9996 42.5334C5.9996 13.8667 3.06627 16.0001 42.6663 16.0001C70.5329 16.0001 73.3329 16.2667 76.1329 18.5334Z" fill="#548135"/>
<path d="M32.9333 28.9335C32.4 29.3335 32 35.3335 32 42.1335C32 51.2002 32.5333 54.5335 33.8667 55.0668C36.8 56.2668 56.6667 44.6668 56.6667 41.8668C56.6667 40.2668 53.3333 37.6002 46.6667 33.7335C36.5333 28.0002 34.5333 27.3335 32.9333 28.9335ZM50.4 41.8668C50.2667 42.0002 47.2 43.8668 43.7333 45.8668L37.3333 49.4668V42.0002V34.6668L44.1333 38.1335C47.8667 40.0002 50.6667 41.6002 50.4 41.8668Z" fill="#548135"/>
</g>
<defs>
<clipPath id="clip0_41_199">
<rect width="85.3333" height="85.3333" fill="white"/>
</clipPath>
</defs>
</svg>
